<svg width="21" height="22" viewBox="0 0 21 22" fill="none" xmlns="http://www.w3.org/2000/svg">
<path d="M12.5 18H7L7.5 15H11L12.5 15.5V18Z" fill="white"/>
<path d="M7.48203 19.2774V16.2914C7.48201 15.5319 8.10119 14.9148 8.86835 14.9097H11.6785C12.4493 14.9097 13.0742 15.5283 13.0742 16.2914V16.2914V19.2867C13.074 19.9315 13.5939 20.4586 14.2451 20.4737H16.1185C17.986 20.4737 19.5 18.9749 19.5 17.126V17.126V8.63158C19.49 7.90423 19.1451 7.22121 18.5633 6.7769L12.1562 1.66727C11.0338 0.777578 9.43815 0.777578 8.3157 1.66727L1.93671 6.78617C1.35273 7.22868 1.00719 7.91283 1 8.64085V17.126C1 18.9749 2.51396 20.4737 4.38152 20.4737H6.25494C6.92229 20.4737 7.46329 19.9381 7.46329 19.2774V19.2774" stroke="url(#paint0_linear_1_261)" stroke-width="2" stroke-linecap="round" stroke-linejoin="round"/>
<defs>
<linearGradient id="paint0_linear_1_261" x1="1.38542" y1="9.85168" x2="19.5066" y2="10.0196" gradientUnits="userSpaceOnUse">
<stop stop-color="#0088FF"/>
<stop offset="1" stop-color="#0F9AFF"/>
</linearGradient>
</defs>
</svg>
