<svg width="17" height="18" viewBox="0 0 17 18" fill="none" xmlns="http://www.w3.org/2000/svg">
<path fill-rule="evenodd" clip-rule="evenodd" d="M0 2.4375C0 1.22938 0.979375 0.25 2.1875 0.25H5.3125C5.83026 0.25 6.25 0.669738 6.25 1.1875C6.25 1.70526 5.83026 2.125 5.3125 2.125H2.1875C2.01491 2.125 1.875 2.26491 1.875 2.4375V15.5625C1.875 15.7351 2.01491 15.875 2.1875 15.875H5.3125C5.83026 15.875 6.25 16.2948 6.25 16.8125C6.25 17.3302 5.83026 17.75 5.3125 17.75H2.1875C0.979375 17.75 0 16.7706 0 15.5625V2.4375ZM8.20083 8.0625L10.6629 5.60041C11.029 5.2343 11.029 4.6407 10.6629 4.27459C10.2968 3.90847 9.7032 3.90847 9.33709 4.27459L5.27459 8.33709C4.90847 8.7032 4.90847 9.2968 5.27459 9.66291L9.33709 13.7254C9.7032 14.0915 10.2968 14.0915 10.6629 13.7254C11.029 13.3593 11.029 12.7657 10.6629 12.3996L8.20083 9.9375H15.3125C15.8302 9.9375 16.25 9.51776 16.25 9C16.25 8.48223 15.8302 8.0625 15.3125 8.0625H8.20083Z" fill="#C5CAF6"/>
</svg>
