<svg width="18" height="19" viewBox="0 0 18 19" fill="none" xmlns="http://www.w3.org/2000/svg">
<path fill-rule="evenodd" clip-rule="evenodd" d="M12.096 0C12.4289 0 12.7041 0.249345 12.7476 0.572854L12.7536 0.662791V1.41195C15.4546 1.59712 17.1085 3.34292 17.0999 6.1615V14.2257C17.0999 17.2133 15.243 19 12.2585 19H4.84144C1.86042 19 0 17.1829 0 14.1589V6.1615C0 3.17791 1.86052 1.39557 4.84144 1.39557H11.4383V0.662791C11.4383 0.296741 11.7327 0 12.096 0ZM11.4383 2.72117H4.84142C2.57247 2.72117 1.31535 3.92546 1.31535 6.16151V6.54328H15.7845V6.15948C15.7908 4.08762 14.7188 2.90426 12.7536 2.74076V3.57092C12.7536 3.93697 12.4592 4.23371 12.096 4.23371C11.763 4.23371 11.4878 3.98437 11.4443 3.66086L11.4383 3.57092V2.72117ZM15.7845 7.86886H1.31535V14.1589C1.31535 16.4413 2.57781 17.6744 4.84142 17.6744H12.2584C14.5298 17.6744 15.7845 16.4671 15.7845 14.2257L15.7845 7.86886ZM12.4534 9.9946C12.8167 9.9946 13.1111 10.2913 13.1111 10.6574C13.1111 10.9929 12.8637 11.2702 12.5427 11.3141L12.4534 11.3202C12.0821 11.3202 11.7876 11.0234 11.7876 10.6574C11.7876 10.3218 12.035 10.0445 12.3561 10.0006L12.4534 9.9946ZM9.2198 10.6574C9.2198 10.2913 8.92534 9.9946 8.56211 9.9946L8.46474 10.0006C8.14372 10.0445 7.8963 10.3218 7.8963 10.6574C7.8963 11.0234 8.19075 11.3202 8.56211 11.3202L8.65135 11.3141C8.97237 11.2702 9.2198 10.9929 9.2198 10.6574ZM8.56211 13.4292C8.92534 13.4292 9.2198 13.726 9.2198 14.092C9.2198 14.4276 8.97237 14.7049 8.65135 14.7487L8.56211 14.7548C8.19075 14.7548 7.8963 14.4581 7.8963 14.092C7.8963 13.7565 8.14372 13.4792 8.46474 13.4353L8.56211 13.4292ZM5.32042 14.092C5.32042 13.726 5.02596 13.4292 4.66272 13.4292L4.56536 13.4353C4.24434 13.4792 3.99691 13.7565 3.99691 14.092C3.99691 14.4581 4.29137 14.7548 4.6546 14.7548L4.75197 14.7487C5.07299 14.7049 5.32042 14.4276 5.32042 14.092Z" fill="#C5CAF6"/>
<path d="M5.01206 0C5.34502 0 5.6202 0.249345 5.66375 0.572854L5.66975 0.662791V3.57092C5.66975 3.93697 5.37529 4.23371 5.01206 4.23371C4.6791 4.23371 4.40392 3.98437 4.36037 3.66086L4.35437 3.57092V0.662791C4.35437 0.296741 4.64883 0 5.01206 0Z" fill="url(#paint0_linear_1_149)"/>
<path d="M4.6627 9.9946C5.02593 9.9946 5.32039 10.2913 5.32039 10.6574C5.32039 10.9929 5.07296 11.2702 4.75195 11.3141L4.65458 11.3202C4.29134 11.3202 3.99689 11.0234 3.99689 10.6574C3.99689 10.3218 4.24431 10.0445 4.56533 10.0006L4.6627 9.9946Z" fill="url(#paint1_linear_1_149)"/>
<path d="M12.4534 13.4292C12.8166 13.4292 13.1111 13.726 13.1111 14.092C13.1111 14.4276 12.8637 14.7049 12.5427 14.7488L12.4534 14.7548C12.0821 14.7548 11.7876 14.4581 11.7876 14.092C11.7876 13.7565 12.035 13.4792 12.356 13.4353L12.4534 13.4292Z" fill="url(#paint2_linear_1_149)"/>
<defs>
<linearGradient id="paint0_linear_1_149" x1="4.38177" y1="1.92442" x2="5.67032" y2="1.92832" gradientUnits="userSpaceOnUse">
<stop stop-color="#0088FF"/>
<stop offset="1" stop-color="#0F9AFF"/>
</linearGradient>
<linearGradient id="paint1_linear_1_149" x1="4.02446" y1="10.5971" x2="5.32085" y2="10.6098" gradientUnits="userSpaceOnUse">
<stop stop-color="#0088FF"/>
<stop offset="1" stop-color="#0F9AFF"/>
</linearGradient>
<linearGradient id="paint2_linear_1_149" x1="11.8152" y1="14.0318" x2="13.1116" y2="14.0444" gradientUnits="userSpaceOnUse">
<stop stop-color="#0088FF"/>
<stop offset="1" stop-color="#0F9AFF"/>
</linearGradient>
</defs>
</svg>
