<svg width="20" height="21" viewBox="0 0 20 21" fill="none" xmlns="http://www.w3.org/2000/svg">
<path fill-rule="evenodd" clip-rule="evenodd" d="M8.91359 0.121765H10.1532C10.8648 0.121479 11.5462 0.403407 12.0422 0.903328C12.5382 1.40325 12.8066 2.07859 12.785 2.70886L12.7935 2.8571C12.8108 3.00307 12.8594 3.14396 12.938 3.27381C13.0913 3.52987 13.3422 3.71569 13.6354 3.79029C13.9287 3.86489 14.2402 3.82215 14.5352 3.65304L14.6996 3.56985C15.9341 3.00125 17.4147 3.4531 18.0994 4.61745L18.7148 5.66373C18.731 5.69131 18.7453 5.71981 18.7577 5.74905L18.8148 5.86113C19.3652 7.0121 18.9736 8.38117 17.9278 9.07673L17.6696 9.23571C17.5346 9.32792 17.4221 9.44838 17.3374 9.59311C17.1846 9.85018 17.1426 10.1563 17.2208 10.4438C17.2991 10.7313 17.4911 10.9763 17.7823 11.1413L17.9499 11.2465C18.456 11.5933 18.8217 12.1046 18.9812 12.6906C19.1611 13.3518 19.0646 14.0559 18.7082 14.6552L18.0461 15.7358L17.9463 15.8882C17.1685 16.9841 15.6582 17.3189 14.5057 16.6671L14.3691 16.5981C14.2266 16.5357 14.0728 16.5014 13.9328 16.4976C13.6283 16.4961 13.3359 16.614 13.1206 16.8249C12.9053 17.0359 12.785 17.3224 12.7858 17.6555L12.7776 17.8278C12.6662 19.1616 11.5266 20.195 10.1535 20.195H8.91359C7.45942 20.195 6.28057 19.0401 6.28205 17.6611L6.27352 17.5129C6.25621 17.3669 6.20769 17.226 6.12505 17.0894C5.97516 16.8327 5.72681 16.6453 5.43521 16.5689C5.14362 16.4924 4.83293 16.5333 4.53219 16.7036L4.35351 16.791C3.78843 17.04 3.15103 17.086 2.55377 16.9197C1.87992 16.7321 1.31017 16.2891 0.977693 15.701L0.338024 14.6189L0.252889 14.4585C-0.32963 13.2538 0.126977 11.8056 1.28584 11.1495L1.39153 11.0846C1.70112 10.8747 1.88675 10.5286 1.88675 10.1584C1.88675 9.75588 1.66757 9.38395 1.28417 9.16628L1.12861 9.0685C0.010044 8.3064 -0.331718 6.82672 0.361213 5.64889L1.01287 4.59976C1.73763 3.36737 3.34376 2.94223 4.57906 3.6363L4.71279 3.70615C4.84911 3.76745 4.99719 3.79999 5.13977 3.80147C5.76847 3.80154 6.28068 3.30691 6.2902 2.67288L6.29874 2.47817C6.35022 1.87533 6.61722 1.3088 7.0537 0.879103C7.54615 0.39431 8.21548 0.121765 8.91359 0.121765ZM10.1534 1.57484H8.91358C8.61003 1.57484 8.31901 1.69334 8.1049 1.90413C7.91512 2.09095 7.79902 2.33729 7.77865 2.56733L7.76517 2.87334C7.66133 4.20758 6.52348 5.25469 5.13198 5.25451C4.77328 5.25086 4.41967 5.17316 4.05906 5.00989L3.86599 4.91013C3.31588 4.6013 2.61443 4.78698 2.28891 5.34009L1.63724 6.38923C1.33864 6.89697 1.48798 7.54354 1.95034 7.85928L2.21201 8.02163C2.93265 8.49903 3.36982 9.29823 3.36982 10.1584C3.36982 11.0061 2.94486 11.7984 2.21024 12.2959L2.05387 12.3922C1.53914 12.6839 1.3405 13.3139 1.57973 13.8101L1.63623 13.917L2.26778 14.9844C2.41609 15.2466 2.66491 15.4401 2.95921 15.522C3.22004 15.5947 3.49844 15.5746 3.71563 15.4797L3.82474 15.4273C4.4271 15.083 5.1449 14.9886 5.81859 15.1652C6.49229 15.3419 7.06605 15.7749 7.40639 16.3579C7.58947 16.6601 7.70532 16.9965 7.75016 17.3833L7.77039 17.7381C7.83282 18.3026 8.32083 18.742 8.91358 18.742H10.1534C10.7529 18.742 11.2509 18.2904 11.2977 17.7372L11.3034 17.6277C11.3 16.9416 11.5767 16.2827 12.0719 15.7975C12.5671 15.3124 13.2397 15.0413 13.9562 15.0448C14.3078 15.054 14.6538 15.1312 15.0075 15.2872L15.3247 15.4459C15.8224 15.6599 16.4128 15.5037 16.7121 15.0831L16.7848 14.9717L17.4316 13.9157C17.5844 13.6587 17.6264 13.3525 17.5481 13.0651C17.4788 12.8103 17.3198 12.588 17.127 12.455L16.8537 12.2857C16.3312 11.9397 15.9514 11.4193 15.7878 10.8182C15.6079 10.1571 15.7044 9.45292 16.0532 8.86633C16.2442 8.53968 16.5066 8.25882 16.8488 8.02597L17.0101 7.92642C17.524 7.63191 17.7225 7.00195 17.485 6.50393L17.414 6.36989L17.4013 6.34176L16.8144 5.34294C16.5368 4.87088 15.9591 4.66692 15.4689 4.82807L15.3575 4.87179L15.254 4.92347C14.6536 5.26999 13.9372 5.36831 13.2627 5.19673C12.5882 5.02516 12.0111 4.59778 11.6606 4.01216C11.4775 3.70993 11.3617 3.37351 11.3169 2.9868L11.3037 2.73382C11.3126 2.42945 11.1954 2.13451 10.9788 1.91618C10.7621 1.69784 10.4645 1.57472 10.1534 1.57484Z" fill="#C5CAF6"/>
<path fill-rule="evenodd" clip-rule="evenodd" d="M6.19006 10.1584C6.19006 8.34681 7.689 6.87823 9.53804 6.87823C11.3871 6.87823 12.886 8.34681 12.886 10.1584C12.886 11.97 11.3871 13.4385 9.53804 13.4385C7.689 13.4385 6.19006 11.97 6.19006 10.1584ZM11.4028 10.1584C11.4028 9.14934 10.5679 8.33132 9.53796 8.33132C8.50801 8.33132 7.67307 9.14934 7.67307 10.1584C7.67307 11.1675 8.50801 11.9855 9.53796 11.9855C10.5679 11.9855 11.4028 11.1675 11.4028 10.1584Z" fill="url(#paint0_linear_1_178)"/>
<defs>
<linearGradient id="paint0_linear_1_178" x1="6.32956" y1="9.86019" x2="12.8883" y2="9.92547" gradientUnits="userSpaceOnUse">
<stop stop-color="#0088FF"/>
<stop offset="1" stop-color="#0F9AFF"/>
</linearGradient>
</defs>
</svg>
