<svg width="21" height="20" viewBox="0 0 21 20" fill="none" xmlns="http://www.w3.org/2000/svg">
<path d="M4.49997 18.5C4.09997 18.1 4.33331 17 4.49997 16.5L10.5 16C9.33333 16.6667 5.9 18.6 5.5 19C5 19.5 4.99997 19 4.49997 18.5Z" fill="url(#paint0_linear_1_174)"/>
<path fill-rule="evenodd" clip-rule="evenodd" d="M11.2141 1.44083L13.5301 6.09983C13.6461 6.33483 13.8701 6.49883 14.1301 6.53683L19.3151 7.28583C19.5251 7.31383 19.7141 7.42383 19.8431 7.59183C20.0851 7.90683 20.0481 8.35283 19.7581 8.62383L16.0001 12.2578C15.8091 12.4378 15.7241 12.7018 15.7741 12.9588L16.6741 18.0868C16.7371 18.5118 16.4471 18.9098 16.0221 18.9788C15.8461 19.0058 15.6661 18.9778 15.5061 18.8988L10.8881 16.4778C10.6561 16.3518 10.3781 16.3518 10.1461 16.4778C10.1461 16.4778 5.88313 18.7138 5.49413 18.9118C5.10513 19.1098 4.62913 18.9628 4.41713 18.5818C4.33613 18.4278 4.30813 18.2528 4.33613 18.0818L5.23613 12.9538C5.28113 12.6978 5.19613 12.4348 5.01013 12.2538L1.23213 8.62083C0.924129 8.31483 0.922129 7.81683 1.22913 7.50883L1.23213 7.50483C1.35913 7.38983 1.51513 7.31283 1.68413 7.28283L6.87013 6.53383C7.12913 6.49283 7.35213 6.33083 7.47013 6.09583L9.78413 1.44083C9.87713 1.25183 10.0421 1.10683 10.2421 1.04083C10.4431 0.97383 10.6631 0.98983 10.8521 1.08483C11.0071 1.16183 11.1341 1.28683 11.2141 1.44083Z" stroke="#9498BB" stroke-width="1.5" stroke-linecap="round" stroke-linejoin="round"/>
<defs>
<linearGradient id="paint0_linear_1_174" x1="4.40872" y1="17.4578" x2="10.5006" y2="17.573" gradientUnits="userSpaceOnUse">
<stop stop-color="#0088FF"/>
<stop offset="1" stop-color="#0F9AFF"/>
</linearGradient>
</defs>
</svg>
