<svg width="22" height="16" viewBox="0 0 22 16" fill="none" xmlns="http://www.w3.org/2000/svg">
<path fill-rule="evenodd" clip-rule="evenodd" d="M11.6762 0.168671H5.33169C2.73567 0.168671 0.97583 1.90847 0.97583 4.40713V11.5066C0.97583 14.0053 2.73567 15.7451 5.33169 15.7451H11.6762C14.1235 15.7451 15.8335 14.1911 16.0159 11.9154L18.6946 13.0102L18.8288 13.0592C19.9945 13.4355 21.2164 12.569 21.2164 11.3168V4.59785L21.2111 4.45514C21.119 3.23392 19.8542 2.43028 18.695 2.90326L16.016 3.99828C15.8341 1.72098 14.1275 0.168671 11.6762 0.168671ZM14.5139 5.09381C14.5132 5.11277 14.5132 5.13182 14.5139 5.15091V10.7628C14.5132 10.7819 14.5132 10.8009 14.5139 10.8199V11.5066C14.5139 13.1602 13.4333 14.227 11.6762 14.227H5.33164C3.57017 14.227 2.49385 13.163 2.49385 11.5066V4.4071C2.49385 2.75077 3.57017 1.68672 5.33164 1.68672H11.6762C13.437 1.68672 14.5139 2.75117 14.5139 4.4071V5.09381ZM16.0321 10.282V5.63168L19.269 4.30865L19.3376 4.28927C19.5209 4.25953 19.6983 4.40071 19.6983 4.59785V11.3168L19.6904 11.3878C19.6487 11.5688 19.4513 11.6794 19.2686 11.6048L16.0321 10.282Z" fill="white"/>
</svg>
