<svg width="14" height="14" viewBox="0 0 14 14" fill="none" xmlns="http://www.w3.org/2000/svg">
<path opacity="0.8" fill-rule="evenodd" clip-rule="evenodd" d="M11.9 0C13.0598 0 14 0.940202 14 2.1V11.9C14 13.0598 13.0598 14 11.9 14H2.1C0.940202 14 0 13.0598 0 11.9V2.1C0 0.940202 0.940202 0 2.1 0H11.9ZM1.39998 10.5V11.9C1.39998 12.2866 1.71338 12.6 2.09998 12.6H2.79998V10.5H1.39998ZM9.80004 7.69999H4.20004V12.6H9.80004V7.69999ZM12.6 10.5H11.2V12.6H11.9C12.2866 12.6 12.6 12.2866 12.6 11.9V10.5ZM12.6 4.89998H11.2V9.09998H12.6V4.89998ZM9.80004 1.39998H4.20004V6.29998H9.80004V1.39998ZM11.9 1.39998H11.2V3.49998H12.6V2.09998C12.6 1.71338 12.2866 1.39998 11.9 1.39998ZM2.79998 1.39998H2.09998C1.71338 1.39998 1.39998 1.71338 1.39998 2.09998V3.49998H2.79998V1.39998ZM1.39998 9.09998H2.79998V4.89998H1.39998V9.09998Z" fill="#C5CAF6"/>
</svg>
