<svg width="22" height="19" viewBox="0 0 22 19" fill="none" xmlns="http://www.w3.org/2000/svg">
<g filter="url(#filter0_d_1_651)">
<path fill-rule="evenodd" clip-rule="evenodd" d="M11.3323 2.78C13.6042 2.78 15.61 4.32028 17.3551 7.30349L17.4855 7.52994L17.6646 7.84585L17.3551 8.3882C15.61 11.3714 13.6042 12.9117 11.3323 12.9117C9.06037 12.9117 7.0546 11.3714 5.30949 8.3882L5.17909 8.16175L5 7.84585L5.17909 7.52994C6.95448 4.39826 9.00357 2.78 11.3323 2.78ZM11.3324 4.0464C9.62074 4.0464 7.99421 5.25937 6.45991 7.84578C7.99421 10.4322 9.62074 11.6452 11.3324 11.6452C12.9976 11.6452 14.5802 10.4991 16.0734 8.06407L16.205 7.84586L16.0732 7.62753C14.5777 5.19108 12.9952 4.0464 11.3324 4.0464ZM11.3324 5.94616C12.3816 5.94616 13.2321 6.79668 13.2321 7.84585C13.2321 8.89502 12.3816 9.74555 11.3324 9.74555C10.2833 9.74555 9.43275 8.89502 9.43275 7.84585C9.43275 6.79668 10.2833 5.94616 11.3324 5.94616Z" fill="#0F9AFF"/>
</g>
<defs>
<filter id="filter0_d_1_651" x="0.829988" y="-8.9407e-06" width="21.0046" height="18.4717" filterUnits="userSpaceOnUse" color-interpolation-filters="sRGB">
<feFlood flood-opacity="0" result="BackgroundImageFix"/>
<feColorMatrix in="SourceAlpha" type="matrix" values="0 0 0 0 0 0 0 0 0 0 0 0 0 0 0 0 0 0 127 0" result="hardAlpha"/>
<feOffset dy="1.39"/>
<feGaussianBlur stdDeviation="2.08501"/>
<feColorMatrix type="matrix" values="0 0 0 0 0.0588236 0 0 0 0 0.603922 0 0 0 0 1 0 0 0 0.52 0"/>
<feBlend mode="normal" in2="BackgroundImageFix" result="effect1_dropShadow_1_651"/>
<feBlend mode="normal" in="SourceGraphic" in2="effect1_dropShadow_1_651" result="shape"/>
</filter>
</defs>
</svg>
